<svg xmlns="http://www.w3.org/2000/svg" width="15.995" height="15.995" viewBox="0 0 15.995 15.995">
  <g id="Group_7" data-name="Group 7" transform="translate(-754 -116)">
    <path id="solid_book-reader" data-name="solid book-reader" d="M11,3A3,3,0,1,0,8,6,3,3,0,0,0,11,3ZM7.3,7.532C5.444,6.4,2.442,6.086.931,6A.864.864,0,0,0,0,6.846v6.96a.859.859,0,0,0,.828.845,16.805,16.805,0,0,1,6.031,1.294.435.435,0,0,0,.64-.371V7.89a.416.416,0,0,0-.2-.358ZM15.064,6c-1.51.086-4.513.4-6.366,1.532a.423.423,0,0,0-.2.363v7.678a.436.436,0,0,0,.642.372,16.812,16.812,0,0,1,6.028-1.293A.86.86,0,0,0,16,13.807V6.846A.865.865,0,0,0,15.064,6Z" transform="translate(754 116)" fill="#c09451"/>
  </g>
</svg>
