<svg xmlns="http://www.w3.org/2000/svg" width="15.994" height="15.999" viewBox="0 0 15.994 15.999">
  <g id="Group_8" data-name="Group 8" transform="translate(-550 -762)">
    <path id="solid_rocket" data-name="solid rocket" d="M15.837.6a.5.5,0,0,0-.381-.381A11.34,11.34,0,0,0,12.878,0C9.654,0,7.72,1.725,6.276,4H3.02a1.5,1.5,0,0,0-1.34.828L.137,7.914A.75.75,0,0,0,.808,9H4.051l-.7.7a1,1,0,0,0,0,1.414l1.59,1.591a1,1,0,0,0,1.414,0l.7-.7v3.245a.75.75,0,0,0,1.084.671l3.084-1.543a1.5,1.5,0,0,0,.828-1.34V9.774c2.268-1.447,4-3.387,4-6.6A11.084,11.084,0,0,0,15.837.6ZM12.055,5.249A1.25,1.25,0,1,1,13.3,4,1.25,1.25,0,0,1,12.055,5.249Z" transform="translate(549.942 762)" fill="#c09451"/>
  </g>
</svg>
