<svg xmlns="http://www.w3.org/2000/svg" width="16" height="14" viewBox="0 0 16 14">
  <g id="Group_9" data-name="Group 9" transform="translate(-40 -155)">
    <path id="solid_briefcase" data-name="solid briefcase" d="M10,41.5a.5.5,0,0,1-.5.5h-3a.5.5,0,0,1-.5-.5V40H0v4.5A1.538,1.538,0,0,0,1.5,46h13A1.538,1.538,0,0,0,16,44.5V40H10ZM14.5,35H12V33.5A1.538,1.538,0,0,0,10.5,32h-5A1.538,1.538,0,0,0,4,33.5V35H1.5A1.538,1.538,0,0,0,0,36.5V39H16V36.5A1.538,1.538,0,0,0,14.5,35ZM10,35H6V34h4Z" transform="translate(40 123)" fill="#fff"/>
  </g>
</svg>
