<svg xmlns="http://www.w3.org/2000/svg" width="17.999" height="13.999" viewBox="0 0 17.999 13.999">
  <g id="Group_2" data-name="Group 2" transform="translate(-278 -269)">
    <path id="solid_comments" data-name="solid comments" d="M13,37c0-2.762-2.909-5-6.5-5S0,34.237,0,37a4.239,4.239,0,0,0,1.187,2.875,7.033,7.033,0,0,1-1.119,1.7.248.248,0,0,0-.047.272A.245.245,0,0,0,.25,42a5.5,5.5,0,0,0,2.772-.781A7.951,7.951,0,0,0,6.5,42C10.09,42,13,39.762,13,37Zm3.812,6.875A4.233,4.233,0,0,0,18,41c0-2.091-1.672-3.881-4.04-4.628A4.644,4.644,0,0,1,14,37c0,3.309-3.365,6-7.5,6a9.369,9.369,0,0,1-.991-.059A6.755,6.755,0,0,0,11.5,46a7.908,7.908,0,0,0,3.478-.781A5.5,5.5,0,0,0,17.749,46a.246.246,0,0,0,.228-.15.25.25,0,0,0-.047-.272A6.959,6.959,0,0,1,16.812,43.874Z" transform="translate(278 237)" fill="#fff"/>
  </g>
</svg>
